<svg width="592" height="421" viewBox="0 0 592 421" fill="none" xmlns="http://www.w3.org/2000/svg">
<g clip-path="url(#clip0_2493_31229)">
<path d="M413.586 -30.3779V173.682" stroke="#0A2533" stroke-width="0.9195" stroke-miterlimit="10"/>
<path d="M349.771 278.622L344.502 251.714C340.604 231.812 333.087 217.294 321.952 208.153C310.812 199.018 297.053 196.053 280.672 199.262C264.291 202.471 252.674 210.369 245.828 222.951C238.978 235.539 237.507 251.818 241.419 271.79L246.706 298.8C250.591 318.633 258.099 333.119 269.238 342.254C273.941 346.111 279.118 348.869 284.768 350.521C292.496 352.788 301.112 352.985 310.614 351.127C315.538 350.166 320.035 348.773 324.094 346.952C333.49 342.741 340.579 336.245 345.361 327.455C352.212 314.868 353.679 298.588 349.771 278.622ZM316.881 314.739C315.079 320.257 311.268 323.585 305.447 324.725C299.42 325.906 294.523 324.214 290.745 319.645C288.17 316.532 285.968 311.912 284.142 305.784C284.142 305.779 284.142 305.774 284.142 305.774C284.138 305.765 284.138 305.755 284.133 305.742C283.287 302.901 282.524 299.733 281.843 296.244L274.447 258.468C272.714 248.546 272.709 240.887 274.428 235.489C276.148 230.093 279.954 226.814 285.843 225.665C290.335 224.782 294.21 225.541 297.465 227.932H297.47C298.578 228.75 299.616 229.752 300.582 230.948C304.384 235.651 307.326 243.32 309.404 253.944L316.562 290.498C318.578 301.14 318.684 309.217 316.881 314.739Z" fill="url(#paint0_linear_2493_31229)"/>
<path opacity="0.25" d="M319.525 319.787C321.043 322.123 323.06 338.002 324.095 346.953C320.035 348.774 315.538 350.167 310.615 351.128C301.113 352.985 292.497 352.788 284.769 350.522C285.085 349.809 285.375 349.064 285.623 348.301C290.446 333.566 284.419 306.98 284.143 305.784C285.968 311.912 288.17 316.532 290.746 319.645C294.524 324.214 299.421 325.906 305.448 324.725C311.268 323.584 315.08 320.256 316.882 314.739C318.685 309.218 318.578 301.14 316.565 290.497L309.407 253.943C307.329 243.319 304.386 235.65 300.585 230.947C299.619 229.752 298.581 228.75 297.473 227.931C309.1 230.211 318.543 266.209 322.478 283.574C326.408 300.942 326.739 308.974 319.525 319.787Z" fill="#010101"/>
<path d="M286.708 312.847C286.708 312.847 287.462 314.818 291.422 315.91C295.383 317.002 299.097 310.876 301.719 312.847C304.341 314.818 308.537 322.987 312.229 321.743C315.921 320.499 317.013 340.163 315.266 342.348C313.518 344.533 312.261 326.873 307.646 327.401C303.03 327.927 306.526 341.255 303.904 343.659C301.282 346.063 302.375 337.76 299.535 336.23C296.694 334.701 302.594 403.088 298.223 404.18C293.853 405.273 291.013 401.121 292.761 386.483C294.509 371.845 292.323 321.373 289.701 318.751C287.081 316.129 287.245 315.637 286.708 312.847Z" fill="url(#paint1_linear_2493_31229)"/>
<path d="M285.624 -30.3779V208.195" stroke="#0A2533" stroke-width="0.9195" stroke-miterlimit="10"/>
<path d="M226.634 171.742L191.262 165.664L191.207 165.981L113.092 253.929L111.479 275.914L122.683 277.84L142.075 281.173L168.105 285.647L170.579 286.07L168.717 296.915L167.853 301.932L165.007 318.505L188.03 322.463L200.38 324.583L205.951 292.148L221.49 294.814L226.179 267.519L210.64 264.853L226.634 171.742ZM182.477 216.81L175.263 258.775L166.634 257.29L147.761 254.05L158.211 241.577L160.602 238.722L180.527 214.94L183.345 211.75L182.477 216.81Z" fill="#5C6BC0"/>
<path opacity="0.25" d="M168.105 285.647L142.075 281.173C145.141 271.045 148.967 257.087 147.762 254.049L166.635 257.289C167.844 259.304 168.8 262.075 169.058 265.878C169.517 272.609 168.514 279.482 168.105 285.647Z" fill="#010101"/>
<path d="M148.888 254.245C148.888 254.245 151.726 250.307 158.117 251.537C164.508 252.767 165 260.633 162.214 269.318C159.428 278.003 158.773 308.318 160.083 318.15C161.395 327.982 160.575 332.571 157.462 332.898C154.349 333.226 152.873 321.099 154.676 312.579C156.479 304.058 156.315 296.192 153.365 297.503C150.415 298.815 152.873 302.092 151.398 305.041C149.923 307.99 145.499 306.188 145.663 300.616C145.827 295.044 154.736 258.835 148.888 254.245Z" fill="url(#paint2_linear_2493_31229)"/>
<path opacity="0.25" d="M210.64 264.853L226.179 267.519L221.49 294.814L205.951 292.148L200.379 324.583L188.03 322.462L209.735 187.033L226.634 171.742L210.64 264.853Z" fill="#010101"/>
<path d="M200.067 -30.3779V180.708" stroke="#0A2533" stroke-width="0.9195" stroke-miterlimit="10"/>
<path d="M259.55 138.623C263.08 138.623 265.941 135.761 265.941 132.232C265.941 128.702 263.08 125.841 259.55 125.841C256.021 125.841 253.159 128.702 253.159 132.232C253.159 135.761 256.021 138.623 259.55 138.623Z" fill="#283593"/>
<path d="M481.91 219.839C485.44 219.839 488.301 216.977 488.301 213.448C488.301 209.918 485.44 207.057 481.91 207.057C478.38 207.057 475.519 209.918 475.519 213.448C475.519 216.977 478.38 219.839 481.91 219.839Z" fill="#283593"/>
<path d="M147.762 173.178C151.292 173.178 154.153 170.316 154.153 166.787C154.153 163.257 151.292 160.396 147.762 160.396C144.232 160.396 141.371 163.257 141.371 166.787C141.371 170.316 144.232 173.178 147.762 173.178Z" fill="#283593"/>
<path d="M253.16 368.621C256.69 368.621 259.551 365.76 259.551 362.23C259.551 358.7 256.69 355.839 253.16 355.839C249.63 355.839 246.769 358.7 246.769 362.23C246.769 365.76 249.63 368.621 253.16 368.621Z" fill="#283593"/>
<path d="M445.376 153.935C446.738 153.935 447.841 152.831 447.841 151.47C447.841 150.108 446.738 149.005 445.376 149.005C444.015 149.005 442.911 150.108 442.911 151.47C442.911 152.831 444.015 153.935 445.376 153.935Z" fill="#283593"/>
<path d="M257.085 192.318C258.446 192.318 259.55 191.214 259.55 189.853C259.55 188.491 258.446 187.388 257.085 187.388C255.724 187.388 254.62 188.491 254.62 189.853C254.62 191.214 255.724 192.318 257.085 192.318Z" fill="#283593"/>
<path d="M183.345 158.942C184.707 158.942 185.81 157.838 185.81 156.477C185.81 155.115 184.707 154.012 183.345 154.012C181.984 154.012 180.88 155.115 180.88 156.477C180.88 157.838 181.984 158.942 183.345 158.942Z" fill="#283593"/>
<path d="M445.205 319.32C434.503 322.187 424.522 322.901 415.264 321.46C406.039 319.961 398.178 316.602 391.682 311.382C385.185 306.162 380.757 299.334 378.399 290.898L412.563 281.743C413.521 284.771 415.234 287.229 417.7 289.117C420.155 290.959 423.137 292.12 426.649 292.601C430.16 293.082 433.928 292.783 437.952 291.705C441.977 290.626 445.332 288.968 448.016 286.729C450.734 284.432 452.625 281.793 453.689 278.812C454.74 275.785 454.802 272.631 453.874 269.351C453.037 266.045 451.315 263.37 448.708 261.323C446.101 259.277 442.847 258.016 438.945 257.542C435.09 257.056 430.783 257.45 426.027 258.724L412.375 262.382L405.905 238.234L419.557 234.576C423.718 233.461 427.193 231.794 429.982 229.577C432.815 227.347 434.793 224.758 435.915 221.811C437.025 218.817 437.122 215.703 436.206 212.468C435.406 209.3 433.91 206.735 431.718 204.774C429.559 202.754 426.93 201.449 423.83 200.858C420.777 200.255 417.466 200.431 413.899 201.387C410.148 202.392 406.919 203.968 404.21 206.115C401.547 208.25 399.648 210.769 398.514 213.671C397.38 216.573 397.196 219.637 397.962 222.862L365.513 231.557C363.362 223.163 363.722 215.175 366.592 207.592C369.45 199.964 374.328 193.289 381.226 187.568C388.17 181.835 396.696 177.614 406.803 174.906C416.865 172.21 426.187 171.6 434.768 173.075C443.349 174.55 450.582 177.759 456.465 182.702C462.336 187.599 466.295 193.867 468.341 201.505C470.507 209.405 469.669 216.614 465.828 223.134C462.032 229.641 456.223 234.579 448.401 237.95L448.695 239.048C459.923 237.411 469.077 238.733 476.155 243.013C483.278 247.281 487.975 253.743 490.246 262.399C492.427 270.54 491.962 278.409 488.851 286.007C485.774 293.548 480.466 300.264 472.927 306.156C465.422 311.991 456.181 316.379 445.205 319.32Z" fill="#5C6BC0"/>
<path opacity="0.25" d="M444 319.538L429 322L432.168 298.722V294.568L434.956 292.487L436.75 291.15L444 290C444 290 443.692 308.537 444 319.538Z" fill="#010101"/>
<path d="M443.794 289.371C443.794 289.371 440.79 285.599 435.546 286.035C430.302 286.471 427.376 288.438 427.2 293.9C427.024 299.363 428.327 326.892 427.13 337.817C425.933 348.742 433.381 349.834 433.808 341.75C434.236 333.666 431.071 308.321 433.417 304.17C435.765 300.019 434.336 308.758 436.798 311.599C439.261 314.439 441.882 309.414 439.261 302.641C436.638 295.867 443.794 289.371 443.794 289.371Z" fill="url(#paint3_linear_2493_31229)"/>
<g filter="url(#filter0_d_2493_31229)">
<path fill-rule="evenodd" clip-rule="evenodd" d="M437.821 217H437.905C437.967 215.23 437.754 213.4 437.267 211.508C436.37 208.027 434.824 205.212 432.629 203.061C430.433 200.911 427.752 199.506 424.584 198.846C421.45 198.177 418.002 198.367 414.239 199.416C410.71 200.399 407.549 201.98 404.755 204.158C401.986 206.293 399.935 208.856 398.599 211.847C397.256 214.804 396.94 218.014 397.653 221.474L385.667 224.815C384.479 219.37 384.878 214.201 386.865 209.306C388.843 204.378 391.986 200.094 396.294 196.453C400.635 192.804 405.753 190.158 411.646 188.515C417.972 186.752 423.731 186.528 428.923 187.843C434.106 189.124 438.452 191.519 441.96 195.025C445.469 198.532 447.848 202.712 449.098 207.565C449.944 210.849 450.232 213.994 449.962 217H450C450 217 448.1 223.719 445.94 227.545C442.96 232.827 440.576 235.573 435.791 239.145C430.596 243.024 421.046 245.414 418.951 245.905L423.001 259.532L412.416 262.499L405.859 238.25L415.778 235.56L416 235.5L415.94 235.777L416.001 235.982L420.567 234.927C420.567 234.927 424.09 233.927 426.149 232.818C428.542 231.529 431.731 228.6 431.731 228.6C431.731 228.6 434.593 225.999 435.791 223.855C437.144 221.432 437.821 217 437.821 217ZM397.581 279.269L396.989 276.763L396.712 276.84C396.972 277.676 397.262 278.485 397.581 279.269Z" fill="#455090"/>
</g>
<g filter="url(#filter1_d_2493_31229)">
<path d="M445 258.5L419 246L423 259.5C423 259.5 430.213 257.053 435 257C438.949 256.956 445 258.5 445 258.5Z" fill="#455090"/>
</g>
</g>
<defs>
<filter id="filter0_d_2493_31229" x="375" y="183" width="81.0596" height="108.27" filterUnits="userSpaceOnUse" color-interpolation-filters="sRGB">
<feFlood flood-opacity="0" result="BackgroundImageFix"/>
<feColorMatrix in="SourceAlpha" type="matrix" values="0 0 0 0 0 0 0 0 0 0 0 0 0 0 0 0 0 0 127 0" result="hardAlpha"/>
<feOffset dx="-2" dy="4"/>
<feGaussianBlur stdDeviation="4"/>
<feComposite in2="hardAlpha" operator="out"/>
<feColorMatrix type="matrix" values="0 0 0 0 0 0 0 0 0 0 0 0 0 0 0 0 0 0 0.25 0"/>
<feBlend mode="normal" in2="BackgroundImageFix" result="effect1_dropShadow_2493_31229"/>
<feBlend mode="normal" in="SourceGraphic" in2="effect1_dropShadow_2493_31229" result="shape"/>
</filter>
<filter id="filter1_d_2493_31229" x="419" y="244" width="38" height="25.5" filterUnits="userSpaceOnUse" color-interpolation-filters="sRGB">
<feFlood flood-opacity="0" result="BackgroundImageFix"/>
<feColorMatrix in="SourceAlpha" type="matrix" values="0 0 0 0 0 0 0 0 0 0 0 0 0 0 0 0 0 0 127 0" result="hardAlpha"/>
<feOffset dx="6" dy="4"/>
<feGaussianBlur stdDeviation="3"/>
<feComposite in2="hardAlpha" operator="out"/>
<feColorMatrix type="matrix" values="0 0 0 0 0 0 0 0 0 0 0 0 0 0 0 0 0 0 0.25 0"/>
<feBlend mode="normal" in2="BackgroundImageFix" result="effect1_dropShadow_2493_31229"/>
<feBlend mode="normal" in="SourceGraphic" in2="effect1_dropShadow_2493_31229" result="shape"/>
</filter>
<linearGradient id="paint0_linear_2493_31229" x1="239.287" y1="275.198" x2="351.902" y2="275.198" gradientUnits="userSpaceOnUse">
<stop stop-color="#1A237E"/>
<stop offset="1" stop-color="#303E9F"/>
</linearGradient>
<linearGradient id="paint1_linear_2493_31229" x1="286.708" y1="358.399" x2="316.079" y2="358.399" gradientUnits="userSpaceOnUse">
<stop stop-color="#DA22FF"/>
<stop offset="1" stop-color="#9733EE"/>
</linearGradient>
<linearGradient id="paint2_linear_2493_31229" x1="145.658" y1="292.102" x2="163.827" y2="292.102" gradientUnits="userSpaceOnUse">
<stop stop-color="#DA22FF"/>
<stop offset="1" stop-color="#9733EE"/>
</linearGradient>
<linearGradient id="paint3_linear_2493_31229" x1="427" y1="316.518" x2="443.794" y2="316.518" gradientUnits="userSpaceOnUse">
<stop stop-color="#DA22FF"/>
<stop offset="1" stop-color="#9733EE"/>
</linearGradient>
<clipPath id="clip0_2493_31229">
<rect width="591.837" height="420.775" fill="white"/>
</clipPath>
</defs>
</svg>
