<svg width="168" height="101" viewBox="0 0 168 101" fill="none" xmlns="http://www.w3.org/2000/svg">
<path d="M46.5 84.3382C44.6435 84.3382 42.863 83.6064 41.5503 82.3039C40.2375 81.0014 39.5 79.2348 39.5 77.3927C39.5 75.5506 40.2375 73.784 41.5503 72.4815C42.863 71.179 44.6435 70.4472 46.5 70.4472H7.5C5.64348 70.4472 3.86301 69.7155 2.55025 68.4129C1.2375 67.1104 0.5 65.3438 0.5 63.5017C0.5 61.6597 1.2375 59.893 2.55025 58.5905C3.86301 57.288 5.64348 56.5562 7.5 56.5562H47.5C49.3565 56.5562 51.137 55.8245 52.4497 54.5219C53.7625 53.2194 54.5 51.4528 54.5 49.6107C54.5 47.7687 53.7625 46.0021 52.4497 44.6995C51.137 43.397 49.3565 42.6653 47.5 42.6653H22.5C20.6435 42.6653 18.863 41.9335 17.5503 40.631C16.2375 39.3284 15.5 37.5618 15.5 35.7198C15.5 33.8777 16.2375 32.1111 17.5503 30.8086C18.863 29.506 20.6435 28.7743 22.5 28.7743H62.5C60.6435 28.7743 58.863 28.0425 57.5503 26.74C56.2375 25.4375 55.5 23.6708 55.5 21.8288C55.5 19.9867 56.2375 18.2201 57.5503 16.9176C58.863 15.6151 60.6435 14.8833 62.5 14.8833H160.5C162.357 14.8833 164.137 15.6151 165.45 16.9176C166.763 18.2201 167.5 19.9867 167.5 21.8288C167.5 23.6708 166.763 25.4375 165.45 26.74C164.137 28.0425 162.357 28.7743 160.5 28.7743H120.5C122.357 28.7743 124.137 29.506 125.45 30.8086C126.762 32.1111 127.5 33.8777 127.5 35.7198C127.5 37.5618 126.762 39.3284 125.45 40.631C124.137 41.9335 122.357 42.6653 120.5 42.6653H142.5C144.357 42.6653 146.137 43.397 147.45 44.6995C148.763 46.0021 149.5 47.7687 149.5 49.6107C149.5 51.4528 148.763 53.2194 147.45 54.5219C146.137 55.8245 144.357 56.5562 142.5 56.5562H132.326C127.451 56.5562 123.5 59.6658 123.5 63.5017C123.5 67.3376 129.5 70.4472 129.5 70.4472C131.357 70.4472 133.137 71.179 134.45 72.4815C135.763 73.784 136.5 75.5506 136.5 77.3927C136.5 79.2348 135.763 81.0014 134.45 82.3039C133.137 83.6064 131.357 84.3382 129.5 84.3382H46.5ZM153.5 49.6107C153.5 48.2371 153.911 46.8942 154.68 45.752C155.449 44.6099 156.542 43.7196 157.821 43.1939C159.1 42.6683 160.508 42.5307 161.866 42.7987C163.223 43.0667 164.471 43.7282 165.45 44.6995C166.429 45.6709 167.095 46.9085 167.365 48.2557C167.636 49.603 167.497 50.9995 166.967 52.2687C166.437 53.5378 165.54 54.6225 164.389 55.3857C163.238 56.1489 161.884 56.5562 160.5 56.5562C158.643 56.5562 156.863 55.8245 155.55 54.5219C154.237 53.2194 153.5 51.4528 153.5 49.6107Z" fill="#E8EAF6"/>
<path d="M113.826 92.382L55.266 99.5163C54.213 99.6446 53.1519 99.3526 52.3159 98.7046C51.4799 98.0565 50.9376 97.1055 50.8083 96.0608L41.7926 23.205C41.7279 22.6826 41.8751 22.1561 42.2016 21.7414C42.5282 21.3267 43.0074 21.0577 43.5339 20.9935L43.5548 20.991L48.4125 20.4501L52.341 20.0115L55.1616 19.6989L107.172 13.8914L116.473 81.2062L117.309 87.9591C117.438 89.0039 117.144 90.0568 116.491 90.8862C115.838 91.7157 114.879 92.2538 113.826 92.382Z" fill="white" stroke="#283593" stroke-width="2.5" stroke-miterlimit="10" stroke-linecap="round"/>
<path d="M104.64 18.1272L113.059 79.1316L113.817 85.2523C113.878 85.718 113.845 86.1911 113.722 86.6445C113.598 87.0979 113.386 87.5227 113.097 87.8945C112.808 88.2663 112.447 88.5779 112.037 88.8114C111.626 89.0449 111.173 89.1958 110.703 89.2554L58.261 95.6443C57.7909 95.6992 57.3145 95.6616 56.8591 95.5336C56.4036 95.4056 55.9781 95.1898 55.6068 94.8984C55.2356 94.6071 54.9258 94.2459 54.6954 93.8356C54.465 93.4254 54.3184 92.974 54.264 92.5075L46.1139 26.6478C46.0493 26.1255 46.1964 25.599 46.523 25.1843C46.8496 24.7695 47.3288 24.5005 47.8553 24.4364L54.3426 23.646" fill="#283593"/>
<path d="M123.172 82.1056H64.1719C62.6555 82.1056 61.4219 80.8815 61.4219 79.377V3.96882C61.4219 2.46427 62.6555 1.24023 64.1719 1.24023H109.729C110.463 1.24023 111.153 1.52384 111.673 2.03883L125.116 15.3691C125.636 15.8845 125.922 16.57 125.922 17.2991V79.377C125.922 80.8815 124.688 82.1056 123.172 82.1056Z" fill="white"/>
<path d="M64.1719 2.48053C63.3448 2.48053 62.6719 3.14819 62.6719 3.96885V79.377C62.6719 80.1977 63.3448 80.8653 64.1719 80.8653H123.172C123.999 80.8653 124.672 80.1977 124.672 79.377V17.2991C124.672 16.9014 124.516 16.5276 124.232 16.2464L110.789 2.91613C110.506 2.63523 110.129 2.48053 109.729 2.48053H64.1719ZM64.1719 0H109.729C110.789 0 111.806 0.417802 112.556 1.16158L125.999 14.4919C126.75 15.2363 127.172 16.2461 127.172 17.2991V79.377C127.172 81.5689 125.381 83.3459 123.172 83.3459H64.1719C61.9627 83.3459 60.1719 81.5689 60.1719 79.377V3.96885C60.1719 1.77692 61.9627 0 64.1719 0Z" fill="#283593"/>
<path d="M110.172 2.38428V13.8939C110.172 14.6834 110.488 15.4405 111.051 15.9987C111.613 16.557 112.376 16.8706 113.172 16.8706H121.106" stroke="#283593" stroke-width="2.5" stroke-miterlimit="10" stroke-linecap="round" stroke-linejoin="round"/>
</svg>
